HIERARCHY
ROOT Hips
{
 OFFSET 0.000000 0.000000 0.000000
 CHANNELS 6 Xposition Yposition Zposition Yrotation Xrotation Zrotation
 JOINT Chest
 {
  OFFSET 0.000000 9.585900 0.002600
  CHANNELS 3 Yrotation Xrotation Zrotation
  JOINT Chest2
  {
   OFFSET 0.000000 9.601200 -0.005300
   CHANNELS 3 Yrotation Xrotation Zrotation
   JOINT Chest3
   {
    OFFSET 0.000000 9.561800 0.000000
    CHANNELS 3 Yrotation Xrotation Zrotation
    JOINT Chest4
    {
     OFFSET 0.000000 9.552100 0.000000
     CHANNELS 3 Yrotation Xrotation Zrotation
     JOINT Neck
     {
      OFFSET 0.000000 14.453000 0.000000
      CHANNELS 3 Yrotation Xrotation Zrotation
      JOINT Head
      {
       OFFSET 0.000000 8.936500 -0.011300
       CHANNELS 3 Yrotation Xrotation Zrotation
       End Site
       {
        OFFSET 0.000000 17.073600 -0.006000
       }
      }
     }
     JOINT RightCollar
     {
      OFFSET -2.921100 9.558500 0.000000
      CHANNELS 3 Yrotation Xrotation Zrotation
      JOINT RightShoulder
      {
       OFFSET -13.519700 0.000000 0.000000
       CHANNELS 3 Yrotation Xrotation Zrotation
       JOINT RightElbow
       {
        OFFSET 0.000000 -29.696600 0.000000
        CHANNELS 3 Yrotation Xrotation Zrotation
        JOINT RightWrist
        {
         OFFSET 0.000000 -24.004700 0.000000
         CHANNELS 3 Yrotation Xrotation Zrotation
         End Site
         {
          OFFSET 0.000000 -17.728500 0.000000
         }
        }
       }
      }
     }
     JOINT LeftCollar
     {
      OFFSET 2.921100 9.558500 0.000000
      CHANNELS 3 Yrotation Xrotation Zrotation
      JOINT LeftShoulder
      {
       OFFSET 13.519700 0.000000 0.000000
       CHANNELS 3 Yrotation Xrotation Zrotation
       JOINT LeftElbow
       {
        OFFSET 0.000000 -29.696600 0.000000
        CHANNELS 3 Yrotation Xrotation Zrotation
        JOINT LeftWrist
        {
         OFFSET 0.000000 -24.004700 0.000000
         CHANNELS 3 Yrotation Xrotation Zrotation
         End Site
         {
          OFFSET 0.000000 -17.728500 0.000000
         }
        }
       }
      }
     }
    }
   }
  }
 }
 JOINT RightHip
 {
  OFFSET -7.771700 -0.012900 -0.001300
  CHANNELS 3 Yrotation Xrotation Zrotation
  JOINT RightKnee
  {
   OFFSET 0.000000 -40.869800 0.001200
   CHANNELS 3 Yrotation Xrotation Zrotation
   JOINT RightAnkle
   {
    OFFSET 0.000000 -39.717900 0.002100
    CHANNELS 3 Yrotation Xrotation Zrotation
    JOINT RightToe
    {
     OFFSET 0.000000 -4.965400 11.033500
     CHANNELS 3 Yrotation Xrotation Zrotation
     End Site
     {
      OFFSET 0.000000 -1.423100 5.872300
     }
    }
   }
  }
 }
 JOINT LeftHip
 {
  OFFSET 7.771700 -0.012900 -0.001300
  CHANNELS 3 Yrotation Xrotation Zrotation
  JOINT LeftKnee
  {
   OFFSET 0.000000 -40.869800 0.001200
   CHANNELS 3 Yrotation Xrotation Zrotation
   JOINT LeftAnkle
   {
    OFFSET 0.000000 -39.717900 0.002100
    CHANNELS 3 Yrotation Xrotation Zrotation
    JOINT LeftToe
    {
     OFFSET 0.000000 -4.965400 11.033500
     CHANNELS 3 Yrotation Xrotation Zrotation
     End Site
     {
      OFFSET 0.000000 -1.423100 5.872300
     }
    }
   }
  }
 }
}
MOTION
Frames: 9
Frame Time: 0.008333
0.000000 85.388000 0.000000 0.000000 -5.767877 0.000000 0.000000 11.653817 0.000000 0.000000 -5.885947 0.000000 0.000000 -0.000000 0.000000 0.000000 -0.000000 0.000000 0.000000 12.528835 0.000000 0.000000 0.711642 0.000000 0.000000 -0.000000 0.000000 0.000000 0.000000 -90.000000 0.000000 -2.309062 0.000000 0.000000 2.309062 0.000000 0.000000 -0.000000 0.000000 0.000000 -0.000000 90.000000 0.000000 -2.309062 0.000000 0.000000 2.309062 0.000000 0.000000 8.520406 0.000000 0.000000 1.905762 0.000000 -0.000000 -4.658285 0.000000 0.000000 -0.000000 0.000000 0.000000 8.520406 0.000000 0.000000 1.905762 0.000000 -0.000000 -4.658285 0.000000 0.000000 -0.000000 0.000000
-32.574532 55.191005 40.273006 -179.741497 -31.223405 -11.244620 0.955928 14.414940 7.271668 0.146838 8.351410 2.500233 0.272769 10.448280 3.173782 0.126675 8.342890 2.485898 8.173263 21.166310 -0.248357 9.031693 -2.785504 -2.153115 1.789850 2.443428 -2.585609 -13.860732 -17.870146 -2.827785 171.599432 -73.508855 -147.315897 10.802986 -6.360294 -17.012709 -10.099401 3.872829 -2.871769 3.982324 -5.371446 -3.710612 -79.289692 -67.345415 87.915263 10.375538 -17.866245 -1.020563 -17.134077 -34.270497 5.112040 55.663917 84.688206 50.646007 0.260159 -20.491893 2.919241 -1.437528 2.798484 -0.650069 -13.715770 -46.297685 17.126603 177.443906 79.884549 172.170100 -2.865630 -18.468483 3.100472 -0.095576 -0.451429 -0.041958
-32.581855 55.193194 40.274045 -179.733656 -31.215608 -11.246755 0.937861 14.406088 7.251588 0.149821 8.352116 2.504917 0.254618 10.442565 3.150589 0.105027 8.326826 2.474148 8.059702 21.013933 -0.273285 8.892560 -2.977422 -2.161025 1.736976 2.459465 -2.597912 -14.056524 -17.324093 -2.535537 168.296492 -74.145861 -144.227497 11.136502 -5.744457 -16.845438 -10.029422 3.835610 -2.892086 3.965836 -5.321268 -3.762734 -79.278491 -67.273708 87.908980 10.424139 -17.872781 -0.933618 -17.136021 -34.274944 5.105813 55.575665 84.686930 50.553161 0.267227 -20.489260 2.929019 -1.446484 2.798873 -0.650979 -13.716783 -46.303740 17.111679 177.403719 79.889622 172.132646 -2.864958 -18.464836 3.100124 -0.091587 -0.452676 -0.040681
-32.589908 55.196098 40.275127 -179.729469 -31.211050 -11.249575 0.925755 14.397889 7.243108 0.149051 8.353522 2.501626 0.204515 10.411660 3.112575 0.119591 8.333327 2.483965 7.923308 20.857280 -0.311223 8.742969 -3.171342 -2.170675 1.713138 2.460379 -2.615261 -14.235601 -16.765966 -2.264533 164.305260 -74.624975 -140.517307 11.449857 -5.364357 -16.905365 -9.962795 3.802437 -2.925921 3.951868 -5.264160 -3.756911 -79.235486 -67.294753 87.875696 10.432531 -17.901310 -0.837245 -17.133898 -34.276041 5.103019 55.470849 84.686997 50.446945 0.253687 -20.483991 2.939922 -1.442249 2.798851 -0.648401 -13.702004 -46.309193 17.082333 177.336483 79.895303 172.083077 -2.858025 -18.461236 3.094006 -0.090937 -0.454797 -0.040029
-32.598540 55.199116 40.276968 -179.729032 -31.205142 -11.252118 0.921862 14.390066 7.242750 0.128990 8.340275 2.488003 0.177799 10.392300 3.090996 0.118775 8.332590 2.480230 7.778126 20.698392 -0.350397 8.583986 -3.367998 -2.179462 1.697117 2.453644 -2.636991 -14.365767 -16.211277 -1.987470 159.745471 -74.968599 -136.298511 11.703548 -5.215622 -17.147711 -9.890278 3.778421 -2.960163 3.940276 -5.209412 -3.743880 -79.186095 -67.312160 87.831750 10.445651 -17.945278 -0.706088 -17.133928 -34.277889 5.105505 55.403462 84.678527 50.372885 0.232366 -20.478894 2.954065 -1.437283 2.799933 -0.648804 -13.697708 -46.313950 17.060380 177.254132 79.900978 172.013122 -2.850705 -18.457176 3.084973 -0.091712 -0.456467 -0.039660
-32.606461 55.201986 40.280086 -179.730479 -31.194624 -11.261414 0.909460 14.368715 7.234534 0.096176 8.314789 2.460143 0.183638 10.398302 3.095491 0.107626 8.324766 2.472221 7.625492 20.537806 -0.389500 8.416833 -3.566581 -2.186242 1.684355 2.441308 -2.663780 -14.450922 -15.677168 -1.692654 154.773101 -75.205412 -131.702680 11.899726 -5.243854 -17.506347 -9.814332 3.758171 -2.993650 3.933101 -5.154566 -3.721983 -79.161195 -67.300554 87.798407 10.501729 -18.000171 -0.522306 -17.139807 -34.281422 5.122911 55.254284 84.674567 50.214337 0.207160 -20.470902 2.982159 -1.454434 2.800426 -0.658018 -13.702363 -46.324563 17.050619 177.142076 79.903739 171.917820 -2.852771 -18.447372 3.077671 -0.089327 -0.461638 -0.042667
-32.613382 55.204802 40.283995 -179.738886 -31.183242 -11.275145 0.899811 14.341536 7.230265 0.077082 8.301957 2.443388 0.201499 10.411803 3.108582 0.101812 8.320775 2.468090 7.430068 20.355299 -0.445746 8.241435 -3.765224 -2.190018 1.643691 2.402004 -2.710235 -14.505936 -15.172691 -1.374959 149.653892 -75.375514 -126.967769 12.047818 -5.359856 -17.901802 -9.767949 3.710364 -3.037593 3.932621 -5.096979 -3.691068 -79.133620 -67.294737 87.758034 10.577085 -18.077170 -0.287382 -17.138464 -34.281675 5.146640 55.051255 84.665580 49.999411 0.210828 -20.471812 3.012461 -1.480418 2.810917 -0.671541 -13.719950 -46.332643 17.066624 177.072217 79.906441 171.851704 -2.852325 -18.440138 3.074199 -0.089925 -0.464757 -0.043841
-32.622393 55.208836 40.285069 -179.722081 -31.187898 -11.290174 0.869876 14.336346 7.212866 0.067072 8.293659 2.432538 0.209790 10.418572 3.117648 0.095990 8.316561 2.463776 7.226162 20.173381 -0.503177 8.054919 -3.963678 -2.190399 1.604204 2.363790 -2.756305 -14.545330 -14.698192 -1.038023 144.663523 -75.533600 -122.351195 12.141624 -5.483872 -18.263874 -9.723121 3.658912 -3.083414 3.937106 -5.034534 -3.652380 -79.059665 -67.318856 87.663966 10.648328 -18.187538 0.007671 -17.140526 -34.267587 5.133648 54.996377 84.650342 49.951179 0.216353 -20.468795 3.008862 -1.467555 2.811009 -0.665048 -13.739828 -46.321908 17.056553 176.998971 79.911916 171.780250 -2.847784 -18.433665 3.069163 -0.090717 -0.466241 -0.043980
-32.631087 55.211814 40.287720 -179.715457 -31.183297 -11.301956 0.846746 14.319683 7.194469 0.061837 8.286788 2.423759 0.190528 10.407421 3.107903 0.046743 8.274141 2.424216 7.096279 20.042808 -0.512804 7.854082 -4.164893 -2.188197 1.633363 2.388995 -2.753688 -14.585392 -14.247977 -0.687161 139.975889 -75.725866 -118.004423 12.169456 -5.563112 -18.559630 -9.614532 3.668720 -3.097837 3.934928 -4.961849 -3.601621 -78.876692 -67.463468 87.466451 10.634629 -18.340899 0.353671 -17.148114 -34.265465 5.134916 54.882402 84.644314 49.829596 0.246729 -20.462187 3.009917 -1.467032 2.808835 -0.662586 -13.757757 -46.323304 17.046682 176.964545 79.917197 171.755003 -2.831031 -18.426245 3.055664 -0.088301 -0.467214 -0.042745
